<svg width="16" height="20" viewBox="0 0 16 20" fill="none" xmlns="http://www.w3.org/2000/svg">
<path fill-rule="evenodd" clip-rule="evenodd" d="M8 0.25C8.41421 0.25 8.75 0.585786 8.75 1V13.1893L10.4697 11.4697C10.7626 11.1768 11.2374 11.1768 11.5303 11.4697C11.8232 11.7626 11.8232 12.2374 11.5303 12.5303L8.53033 15.5303C8.38968 15.671 8.19891 15.75 8 15.75C7.80109 15.75 7.61032 15.671 7.46967 15.5303L4.46967 12.5303C4.17678 12.2374 4.17678 11.7626 4.46967 11.4697C4.76256 11.1768 5.23744 11.1768 5.53033 11.4697L7.25 13.1893V1C7.25 0.585786 7.58579 0.25 8 0.25ZM0.25 19C0.25 18.5858 0.585786 18.25 1 18.25H15C15.4142 18.25 15.75 18.5858 15.75 19C15.75 19.4142 15.4142 19.75 15 19.75H1C0.585786 19.75 0.25 19.4142 0.25 19Z" fill="#09090B"/>
</svg>
